<svg version="1.1" id="Layer_1" xmlns="http://www.w3.org/2000/svg" xmlns:xlink="http://www.w3.org/1999/xlink" x="0px" y="0px"
	 viewBox="0 0 1840 1380" style="enable-background:new 0 0 1840 1380;" xml:space="preserve">
<path style="fill-rule:evenodd;clip-rule:evenodd;fill:#FFFFFF;" d="M894.5,711.9c-24.1,2.8-42.6,2.4-55.5-1
	c-12.9-3.4-23-10.8-30.5-22c-8.1-17.1-12.6-27-13.5-29.5c-4.3-12.3-4.8-24.4-4-32.5c1.1-10.6,6.9-24.4,17.5-41.5
	c1.5-11.8,4-22.3,7.5-31.5c3.5-9.1,10.5-22.3,21-39.5l1.5-56.5c4.4-12.9,8.6-22.1,12.5-27.5c3.9-5.4,8.4-8.2,13.5-8.5
	c4.3-0.4,8.3,0.6,12,3c3.7,2.4,10.7,8.6,21,18.5c8.5-14.8,18.2-26.2,29-34c10.8-7.8,25.1-13.8,43-18l2.5-5l0.3-29.4l-8.3-71.5h-11
	l17-25c1.5-5.5,3-9.5,4.5-12c1.5-2.5,4.2-5.3,8.3-8.5c0.1-0.9,3.4-1.4,10-1.5s17,0.3,31.2,1c6,1.4,10.2,3.2,12.5,5.5
	c2.3,2.3,4.3,7.1,6,14.5l24.4,26l-15.4,1l-1.5,47.5c-2.1,8.1-4.1,13.6-6,16.5c-1.9,2.9-4.8,5-9,6.5l-24.5,1.5l-3,29l2,4
	c12.5,3.6,21,6.4,25.5,8.5c10.8,5,20.5,12.3,28,25c5.2,8.9,10.6,21.2,18,34c6.5,11.3,18.3,31.1,35.5,59.5l17,15l8.5,17l20.5,15.5
	l9.5-31c-19.3-29.3-29-48-29-56c0-3.3,2-6.5,4-8.5c2.8-2.8,6.5-4.5,13-4c4.3,0.3,8.5,3,12.5,8l57.5,154.4c-5.7,18.7-10.7,32.7-15,42
	c-4.3,9.2-10.6,18.4-19,27.5c-12.1,6.8-22.2,10.8-30.5,12c-8.2,1.2-21.7,0.1-40.5-3.5c-6.6-3-10.9-5.8-13-8.5
	c-7.8-9.9-11-22.4-15-29c-5.6-9.3-8.9-18-10-26l-26-84.4l-112.4-3.5L938,640.9c-5.7,23.2-11.9,40.2-18.5,51
	C912.9,702.7,904.6,709.3,894.5,711.9z"/>
<path style="fill-rule:evenodd;clip-rule:evenodd;fill:#FFFFFF;" d="M902.3,730.3c-2-0.4-3.5-0.5-4.5-0.5c-3.7,0-6.7-0.2-8.5-3
	c-2.5-3.9-1.8-8.6,2-14l10.5-3.5h5l36.5,1.5l11.5-1.5l40.5-1.5c4.3,2,5.8,5.8,4.5,11.5c-1.3,5.7-5,9.2-11,10.5l-12,0.5l-81,371.4
	h-52c8.9-58.3,16.1-102.2,21.5-131.6C870.7,940.6,883,860.7,902.3,730.3z M1029.3,730.3c-0.1-1.2-3.3-1.4-9.5-0.5
	c-5.3-2.7-7.5-6.8-6.5-12.5c1-5.7,3.5-8.7,7.5-9l7.5,1h23l23,1.5l25.5-2.5c8,0.7,12,4.3,12,11c0,3.8-1.3,5.8-3,7.5
	c-0.9,0.9-2.5,1.9-5,3l-8,0.5l20.5,371.9h-54c-7.3-66.9-11.9-113.8-14-140.7C1045.8,929.5,1031.9,770.3,1029.3,730.3z"/>
<path style="fill:none;stroke:#263E4B;stroke-width:1.5;" d="M902.3,729.8h74.5l-81,371.4h-52c8.9-58.3,16.1-102.2,21.5-131.6
	C870.7,940.1,883,860.2,902.3,729.8z M1029.3,729.8h66.5l20.5,371.9h-54c-7.3-66.9-11.9-113.8-14-140.7
	C1045.8,929,1031.9,769.8,1029.3,729.8z"/>
<path style="fill-rule:evenodd;clip-rule:evenodd;fill:#0C6478;" d="M948.8,398.4l-56.4,0.3c-28.1,0.1-51.2,22.2-52.7,50.3
	l-0.9,18.5c0.9-9.5,2-16.2,3.5-20c2.3-6.1,5-9.6,8-13.5c4.6-6,9.8-11,14-12c9.7-2.3,20.5,5.2,32.5,22.5c2-3.9,3.7-6.9,5-9
	c2.6-4.2,5.5-8.8,10.5-13.5C922.3,412.6,934.4,404.8,948.8,398.4z"/>
<path style="fill-rule:evenodd;clip-rule:evenodd;fill:#0C6478;" d="M902.8,708.3c5.1,1.9,14.8,2.7,29,2.5c7.7-0.1,21.6-2.4,33.5-3
	c6.6-0.3,16.6-0.3,30,0l11.5-30.5h11l3.5,30.5c11.7,0.7,20,1.2,25,1.5c10.7,0.6,19.6,1,26.5,1c11.8,0,20.4-0.8,26-2.5l-25.5-142.7
	l-118.5,4.5c-1.5,21.7-7.2,45.6-17,71.6c-2.1,5.5-2.4,12.5-4.5,19.5c-3.2,10.6-6.7,20.9-10.5,28C919.1,695.5,912.4,702,902.8,708.3z
	"/>
<path style="fill:#263E4B;" d="M1098,708.1l-11.4-66.8c-0.1-0.4,0.2-0.8,0.6-0.9c0.4-0.1,0.8,0.2,0.9,0.6l11.4,66.5h1.6
	c6.3,0,11.5,5.2,11.5,11.5c0,6.4-5.2,11.5-11.5,11.5h-78.9c-5.6,0-10.2-4.6-10.2-10.2c0-0.5,0-0.9,0.1-1.4l0.6-4.3
	c0.5-3.9,3.5-6.9,7.3-7.5l-2.9-29.1h-9.8l-11,29.2c3.1,0.7,5.2,3.6,5,6.8c0,0.3-0.1,0.6-0.1,0.8l-0.9,4.4c-1.4,6.6-7.2,11.4-14,11.4
	h-91.5c-4.2,0-7.6-3.4-7.6-7.6c0-0.8,0.1-1.6,0.4-2.4c0.7-2.1,1.5-4.7,2.5-8c0.1-0.4,0.5-0.6,0.9-0.5c0.4,0.1,0.6,0.5,0.5,0.9
	c-1,3.3-1.8,5.9-2.5,8c-0.2,0.6-0.3,1.2-0.3,1.9c0,3.4,2.7,6.1,6.1,6.1h91.5c6,0,11.3-4.2,12.5-10.2l0.9-4.4c0-0.2,0.1-0.4,0.1-0.6
	c0.2-2.7-1.8-5.1-4.6-5.3c-6.2-0.1-10.6-0.2-13.2-0.2c-7,0-26.6,1.1-30.7,1.7c-9.3,1.2-14.3,1.4-22.3,1.2c-0.3,0-0.3,0-0.5,0
	c-2.9-0.1-4.3-0.1-6.1-0.1c-6.7,0-11.7-0.2-15-0.5c-3.9-0.4-5.6-0.9-5.4-2.4l1.5,0.2c0-0.1,0-0.2,0-0.2c0.1,0.1,0.3,0.2,0.6,0.3
	c0.7,0.2,1.9,0.4,3.5,0.6c3.2,0.3,8.2,0.5,14.8,0.5c1.9,0,3.3,0,6.1,0.1c0.3,0,0.3,0,0.5,0c8,0.3,12.8,0.1,22.1-1.1
	c4.2-0.6,23.9-1.7,30.9-1.7c2.5,0,6.7,0.1,12.7,0.2l11.3-30c0.1-0.3,0.4-0.5,0.7-0.5h11h6.5c0.4,0,0.8,0.3,0.8,0.8
	c0,0.4-0.3,0.8-0.8,0.8h-5.7l2.9,29.2c3.3,0.5,9.9,0.8,19.8,0.8c3.7,0,21.8,1,27.1,1.5C1074.3,710.1,1084.2,709.6,1098,708.1z
	 M1098.8,709l0,0.5c-14.3,1.6-24.5,2.1-30.6,1.5c-5.2-0.5-23.3-1.5-26.9-1.5c-10.6,0-17.4-0.3-20.7-1l0,0c-3.3,0.3-6,2.9-6.5,6.3
	l-0.6,4.3c0,0.4-0.1,0.8-0.1,1.2c0,4.8,3.9,8.7,8.7,8.7h78.9c5.5,0,10-4.5,10-10s-4.5-10-10-10H1098.8z"/>
<path style="fill:#263E4B;" d="M1011.5,358.6l-2.9,30.8c23.7,8.1,38.9,15.1,45.5,21.1c8.7,7.8,30.8,52.8,42.2,82.3
	c3.4,8.9,8.8,14.6,21.7,25l1.1,0.9c13,10.5,18.3,16.2,21.5,25.2c5,13.9,15,17.3,30.5,10.1c0.4-0.2,0.8,0,1,0.4c0.2,0.4,0,0.8-0.4,1
	c-16.2,7.5-27.2,3.9-32.5-10.9c-3.1-8.7-8.3-14.2-21-24.5l-1.1-0.9c-13.1-10.6-18.5-16.4-22.1-25.6c-11.3-29.3-33.4-74.2-41.8-81.7
	c-6.5-5.9-21.7-12.9-45.6-21c-0.3-0.1-0.5-0.4-0.5-0.8l3-31.2h-8.7c-0.4,0-0.8-0.3-0.8-0.8c0-0.4,0.3-0.8,0.8-0.8h9.5c0,0,0,0,0,0
	h16.6c10.3,0,16.3-4.2,19.4-12.7c2.5-6.8,3.1-14.7,3.1-31.6v-11.5c0-0.2,0-0.3,0-0.6c0-5.6-0.3-8.8-1.4-13.7c0,0-0.1-0.1-0.1-0.1
	c-0.1-0.1-0.3-0.3-0.5-0.5h-71.5c-0.4,0-0.8-0.3-0.8-0.8c0-0.4,0.3-0.8,0.8-0.8h71.8c0.2,0,0.4,0.1,0.5,0.2c0.9,0.8,1.2,1,1.2,1.4
	c1.3,5.1,1.5,8.5,1.5,14.2c0,0.3,0,0.4,0,0.6v11.5c0,17-0.6,25-3.2,32.1c-3.3,9.1-9.9,13.7-20.8,13.7H1011.5z M1230.5,628l1.4,0.4
	c-12.6,42.7-25.9,67.6-40.2,74.7c-22.5,11.2-50,12.1-72.4,1.1c-3-1.5-5.3-3.5-7.6-6.6c-1.7-2.2-3.3-4.9-6-9.5
	c-0.7-1.2-3.3-5.9-3.7-6.6c-1.7-2.9-3.1-5.4-4.6-8c-2.1-3.6-5.1-11.4-8.9-23.6l1.4-0.5c3.8,12.1,6.8,19.9,8.8,23.3
	c1.5,2.6,3,5.1,4.6,8c0.4,0.7,3,5.4,3.7,6.6c2.6,4.6,4.3,7.2,5.9,9.4c2.2,2.9,4.4,4.8,7.1,6.2c22,10.8,49,9.9,71-1.1
	C1204.9,694.9,1218.1,670.3,1230.5,628z"/>
<path style="fill-rule:evenodd;clip-rule:evenodd;fill:#0C6478;" d="M1024.8,396.4l9,3.5c6.3,19.4,11.2,35.9,14.5,49.6
	c3.3,13.7,5.5,34,6.5,61.1l-12.5-3.5c1-21.7-0.8-40.9-5.5-57.6C1034.7,442.2,1030.7,424.5,1024.8,396.4z M948.3,398.4l8.5-3.5
	c2,14.8,3,26.5,3,35s0,17.2,0,26l-13,18.5c2-6,3-19.5,3-40.5C949.8,412.9,949.3,401.1,948.3,398.4z"/>
<path style="fill:#263E4B;" d="M1024.5,396.6l-0.3-1.4l10.6,4.1l0.1,0.3c6.3,19.4,11.2,35.9,14.5,49.6c3.3,13.7,5.5,34.1,6.5,61.2
	l0,1l-14.1-3.9l0-0.6c1-21.6-0.8-40.7-5.5-57.3C1034.5,442.4,1030.5,424.7,1024.5,396.6z M1038,449.3c4.7,16.6,6.5,35.7,5.6,57.2
	l10.9,3.1c-1-26.5-3.2-46.4-6.4-59.9c-3.3-13.6-8.1-30-14.4-49.2l-7.4-2.9C1032.1,424.9,1036,442.2,1038,449.3z M948,398.7l-0.3-0.7
	l10.1-4.2l0.1,1c2,14.8,3,26.5,3,35.1v26.3l-16.1,22.9l1.6-4.9c2-5.9,3-19.4,3-40.3C949.5,413.1,949,401.2,948,398.7z M951,434
	c0,17.4-0.7,29.6-2.1,36.8l10.6-15V430c0-8.3-1-19.7-2.9-34l-7,2.9C950.6,402.6,951,414.2,951,434z"/>
<path style="fill:#263E4B;" d="M1010.5,398.6l1.4-0.4l68,229.8c3.9,20.3,17.9,30.4,42.3,30.4c24.4,0,44.4-16.3,60.2-49l1.3,0.7
	c-15.9,33.2-36.5,49.9-61.5,49.9c-25.1,0-39.7-10.6-43.7-31.6L1010.5,398.6z M1047.5,584.5l1.5,0.2c-7.7,50.1-22.2,75.2-43.7,75.2
	c-17.4,0-29-54.2-33.7-157.9c-0.9-19.5-1.4-52.9-1.5-100.1l1.5,0c0.1,47.2,0.6,80.6,1.5,100.1c4.7,102.3,16.3,156.5,32.3,156.5
	C1025.7,658.5,1039.9,633.9,1047.5,584.5z"/>
<path style="fill-rule:evenodd;clip-rule:evenodd;fill:#263E4B;" d="M1122.2,559.9l52.4-5.5l3.1,29.5l-52.4,5.5L1122.2,559.9z
	 M1073.6,507l-4.9-46.8c2-5.1,7.2-8,15.6-8.9c8.4-0.9,14.1,0.9,17.1,5.5l4.9,46.8L1073.6,507z M1211.2,492.6l-32.7,3.4l-4.9-46.8
	c2-5.1,7.2-8,15.6-8.9c8.4-0.9,14.1,0.9,17.1,5.5L1211.2,492.6z"/>
<path style="fill-rule:evenodd;clip-rule:evenodd;fill:#FFFFFF;" d="M1069.5,559.1l-7.6-72.4c3.2-7.8,11.5-12.5,25-13.9
	c13.5-1.4,22.6,1.4,27.4,8.4l7.6,72.4L1069.5,559.1z M1226.7,542.5l-52.4,5.5l-7.6-72.4c3.2-7.8,11.5-12.5,25-13.9
	c13.5-1.4,22.6,1.4,27.4,8.4L1226.7,542.5z"/>
<path style="fill-rule:evenodd;clip-rule:evenodd;fill:#FFFFFF;stroke:#263E4B;stroke-width:1.5;stroke-linecap:round;stroke-linejoin:round;" d="
	M1069.2,559.3l-7.6-72.4c3.2-7.8,11.5-12.5,25-13.9c13.5-1.4,22.6,1.4,27.4,8.4l7.6,72.4L1069.2,559.3z M1226.4,542.7l-52.4,5.5
	l-7.6-72.4c3.2-7.8,11.5-12.5,25-13.9c13.5-1.4,22.6,1.4,27.4,8.4L1226.4,542.7z"/>
<path style="fill-rule:evenodd;clip-rule:evenodd;fill:#FFFFFF;" d="M1067.9,639.3l-8.8-83.8c4.6-9.2,16.1-14.7,34.7-16.7
	c18.5-2,31,1.1,37.4,9.1l8.8,83.8L1067.9,639.3z M1244.7,620.7l-72,7.6l-8.8-83.8c4.6-9.2,16.1-14.7,34.7-16.7
	c18.5-2,31,1.1,37.4,9.1L1244.7,620.7z"/>
<path style="fill:#263E4B;" d="M1067.8,640.1c-0.4,0-0.8-0.3-0.8-0.7l-8.8-83.8c0-0.1,0-0.3,0.1-0.4c4.7-9.4,16.5-15.1,35.3-17.1
	c18.8-2,31.5,1.1,38,9.4c0.1,0.1,0.1,0.2,0.2,0.4l8.8,83.8c0,0.4-0.3,0.8-0.7,0.8L1067.8,640.1z M1138.9,631.1l-8.7-82.8
	c-6.2-7.6-18.4-10.6-36.6-8.7c-18.2,1.9-29.5,7.3-34,16.1l8.7,82.8L1138.9,631.1z M1245.2,620.7c0,0.4-0.3,0.8-0.7,0.8l-72,7.6
	c-0.4,0-0.8-0.3-0.8-0.7l-8.8-83.8c0-0.1,0-0.3,0.1-0.4c4.7-9.4,16.5-15.1,35.3-17.1s31.5,1.1,38,9.4c0.1,0.1,0.1,0.2,0.2,0.4
	L1245.2,620.7z M1243.7,620.1l-8.7-82.8c-6.2-7.6-18.4-10.6-36.6-8.7c-18.2,1.9-29.5,7.3-34,16.1l8.7,82.8L1243.7,620.1z"/>
<path style="fill-rule:evenodd;clip-rule:evenodd;fill:#263E4B;" d="M1105,647.8c-19.9,2.1-36.6-1.7-37.3-8.5
	c-0.7-6.8,14.8-14,34.7-16.1c19.9-2.1,36.6,1.7,37.3,8.5C1140.4,638.5,1124.9,645.7,1105,647.8z M1209.8,636.8
	c-19.9,2.1-36.6-1.7-37.3-8.5c-0.7-6.8,14.8-14,34.7-16.1c19.9-2.1,36.6,1.7,37.3,8.5C1245.2,627.5,1229.7,634.7,1209.8,636.8z"/>
<path style="fill:#263E4B;" d="M1050,573.2c6.3-0.7,10.8-6.3,10.2-12.6c-0.7-6.3-6.3-10.9-12.6-10.2c-6.3,0.7-10.8,6.3-10.2,12.6
	C1038,569.3,1043.7,573.9,1050,573.2z M1049.8,571.7c-5.5,0.6-10.4-3.4-10.9-8.9c-0.6-5.5,3.4-10.4,8.9-10.9
	c5.5-0.6,10.4,3.4,10.9,8.9C1059.2,566.2,1055.3,571.1,1049.8,571.7z"/>
<path style="fill:#263E4B;" d="M809.9,585.6l10.1-3.7c0.4-0.1,0.8,0.1,1,0.4c0.1,0.4-0.1,0.8-0.4,1l-9,3.3l9.1,5.4
	c0.4,0.2,0.5,0.7,0.3,1c-0.2,0.4-0.7,0.5-1,0.3l-10.2-6l-0.2,0.1c-0.1,0-0.2,0-0.3,0c-18.4,24.5-22.6,48.6-12.8,72.5
	c9.6,23.3,13.9,31.6,21.1,38.8c8.4,8.3,19.9,12.6,39.8,14.8c37.5,4.2,59.4-8.3,69.2-36c6.1-17.3,9.6-29.5,10.5-36.4
	c0.1-0.4,0.4-0.7,0.8-0.7s0.7,0.4,0.7,0.8c-0.9,7-4.4,19.3-10.5,36.7c-10,28.4-32.6,41.3-70.8,37c-20.2-2.2-32-6.7-40.7-15.2
	c-7.4-7.4-11.8-15.8-21.5-39.3c-10.1-24.6-5.6-49.4,13.3-74.4c2-25.4,11.2-49.2,27.6-71.3c16.3-22.1,33.2-38.7,50.5-49.8
	c11.7-31.1,28.7-51.9,51-62.4c11.1-5.2,19.5-8.7,25-10.4c3.7-1.2,6.4-1.6,7.9-1.1l2.6-47.2c0-0.4,0.4-0.7,0.8-0.7
	c0.4,0,0.7,0.4,0.7,0.8l-2.7,49.1c-0.1,1-1.5,0.9-1.5,0c0-0.9-2.3-1-7.3,0.6c-5.5,1.7-13.8,5.2-24.8,10.4
	c-22,10.3-38.8,30.9-50.4,61.8c-0.1,0.2-0.2,0.3-0.3,0.4c-17.2,11-34,27.5-50.3,49.5C821.1,537.4,812,560.7,809.9,585.6z"/>
<path style="fill-rule:evenodd;clip-rule:evenodd;fill:#FFFFFF;" d="M971.3,386.9l-7,17.8c-0.4,1,0.1,2.2,1.1,2.6
	c0.4,0.2,0.8,0.2,1.3,0.1l30-8.3l19.9,7.1c1,0.4,2.2-0.2,2.6-1.2c0.2-0.6,0.1-1.3-0.3-1.8l-11-15.1c-2,1.8-6.4,2.7-13.1,2.7
	C987.9,390.6,980.1,389.4,971.3,386.9z"/>
<path style="fill:#263E4B;" d="M996.2,399.6l-28.8,8c-0.6,0.2-1.2,0.1-1.7-0.1c-1.4-0.6-2.1-2.2-1.5-3.6l7-17.8
	c0.1-0.4,0.5-0.5,0.9-0.4c8.8,2.4,16.5,3.6,23.2,3.6c6.5,0,10.8-0.9,12.6-2.5c0.3-0.3,0.8-0.2,1.1,0.1l11,15.1
	c0.5,0.7,0.7,1.7,0.4,2.5c-0.5,1.4-2.1,2.2-3.5,1.7l-19.1-6.8c0,0.3,0.1,0.6,0.1,1c0.2,1.6,0.5,4.2,0.8,7.6
	c0.8,6.8,1.9,17.3,3.4,31.3c0,0.4-0.3,0.8-0.7,0.8c-0.4,0-0.8-0.3-0.8-0.7c-1.5-14-2.6-24.4-3.4-31.3c-0.4-3.4-0.7-5.9-0.8-7.6
	C996.2,400.3,996.2,399.9,996.2,399.6z M996.1,390.8c0.2,0.6,0.3,1.4,0.5,2.1c0.2,1.3,0.4,2.5,0.7,4.1l0.1,0.7c0,0,0,0,0,0.1
	l19.9,7.1c0.7,0.2,1.4-0.1,1.6-0.8c0.1-0.4,0.1-0.8-0.2-1.2l-10.6-14.5C1005.8,390,1001.9,390.7,996.1,390.8z M995.9,398.1
	c0,0,0-0.1,0-0.1l-0.1-0.7c-0.2-1.6-0.4-2.8-0.7-4c-0.2-0.9-0.4-1.7-0.5-2.4c-6.5-0.1-14-1.2-22.4-3.5l-6.8,17.2
	c-0.3,0.6,0.1,1.4,0.7,1.6c0.3,0.1,0.5,0.1,0.8,0L995.9,398.1z"/>
<path style="fill-rule:evenodd;clip-rule:evenodd;fill:#FFFFFF;" d="M893.8,558.8c41.5-66.2,65.3-102.8,71.5-109.6
	c4.8-5.4,13.1-5.8,18.4-1c4,3.6,5.4,9.3,3.5,14.4l-14.9,39.2"/>
<path style="fill:#263E4B;" d="M894.2,559.5c41.4-66.1,65.3-102.7,71.4-109.5c4.5-5.1,12.3-5.5,17.4-0.9c3.8,3.4,5.1,8.8,3.3,13.5
	l-14.9,39.2l1.4,0.5l14.9-39.2c2-5.3,0.6-11.4-3.7-15.2c-5.7-5.1-14.4-4.6-19.5,1c-6.2,6.9-30,43.4-71.6,109.7L894.2,559.5z"/>
<path style="fill-rule:evenodd;clip-rule:evenodd;fill:#263E4B;" d="M986.4,315.4c-1.2-0.3-2.4-0.5-3.7-0.5c-7.2,0-13,5.8-13,13
	c0,6.1,4.2,11.2,9.9,12.6l-0.6,12.1c-0.2,3.2-2.8,5.8-6.1,5.7l-15.4-0.2c-1,0-2-0.2-2.9-0.4c-5.8-1.7-9.2-7.8-7.5-13.6l17-58.2h2
	l0,0l2.4,0h8.8l0,0l20.9,0.1c-2.4,11.1-4.6,18.5-6.5,22.3C990.3,310.9,988.5,313.3,986.4,315.4z M1057.5,285.8
	c2,8.3-1.1,12.5-9.1,12.5c-8.1,0-20.2-4.2-36.3-12.5H1057.5z"/>
<path style="fill-rule:evenodd;clip-rule:evenodd;fill:#FFFFFF;" d="M872.4,576.2l67.9-60.5c9.9-8.8,22.7-13.6,35.9-13.4l77.3,1
	c10.6,0.1,19.2,8.5,19.7,19c0.5,10-7.2,18.5-17.2,19c-0.2,0-0.4,0-0.7,0L990,542c-4,0-7.2,3.3-7.2,7.3c0,0,0,0,0,0
	c0,4.1,3.3,7.3,7.3,7.5l67.6,1.9c9.2,0.3,16.5,7.8,16.6,17c0,9.1-7.3,16.5-16.3,16.5c0,0-0.1,0-0.1,0h-64.4c-4,0-7.2,3.2-7.2,7.2
	c0,0,0,0.1,0,0.1c0.1,4.4,2.8,8.2,6.9,9.6l41.2,14.3c7.1,2.5,10.9,10.3,8.4,17.4c-0.1,0.3-0.2,0.6-0.4,0.9
	c-3.3,7.6-11.9,11.5-19.8,8.9l-67-22.4l-36.3,24.2c-18.6,12.4-43.7,7.4-56.2-11.2c-1.2-1.7-2.2-3.6-3.1-5.5
	c-3.2-6.8-4.1-16.6-3-29.4C858.3,594.7,863.7,584,872.4,576.2z"/>
<path style="fill:#263E4B;" d="M869.7,647.3l12.6-8.1c-4.3-4.1-7.8-9.2-10.8-15.2c-4.3-8.6-2.9-25,4.2-49.4l-2.4,2.1
	c-8.6,7.6-13.9,18.2-15,29.6c-1.2,12.6-0.2,22.3,2.9,29c0.9,1.9,1.9,3.7,3,5.4C865.9,643.2,867.7,645.4,869.7,647.3z M870.9,648.4
	c13.2,11.8,33.1,13.7,48.5,3.4l3.5-2.3c-13.9,2.5-25.2,0.5-34.3-5.4c-1.8-1.2-3.5-2.4-5.1-3.8L870.9,648.4z M876.5,571.9
	C876.5,571.9,876.5,571.9,876.5,571.9c0.1-0.3,0.3-0.5,0.6-0.5l63.1-56.2c10-8.9,23-13.8,36.4-13.6l77.3,1
	c10.9,0.1,19.9,8.8,20.4,19.7c0.5,10.4-7.5,19.2-17.9,19.7c-0.2,0-0.5,0-0.7,0l-65.5,0.7c-3.6,0-6.5,3-6.4,6.6v0
	c0,3.7,3,6.6,6.6,6.7l67.6,1.9c9.6,0.3,17.3,8.1,17.3,17.7c0,9.5-7.6,17.2-17.1,17.3h-0.1h-64.4c-3.5,0-6.4,2.9-6.4,6.4
	c0,0,0,0,0,0.1c0,4,2.6,7.6,6.4,8.9l41.3,14.3c7.5,2.6,11.5,10.8,8.9,18.3c-0.1,0.3-0.3,0.7-0.4,1c-3.5,8-12.4,12-20.7,9.3
	L956.2,629l-36,24c-19,12.6-44.6,7.5-57.2-11.5c-1.2-1.8-2.2-3.6-3.1-5.6c-3.2-7-4.2-16.9-3-29.7c1.1-11.8,6.6-22.8,15.5-30.6
	L876.5,571.9z M877.8,572.8c-7.5,25.3-9.1,42.2-4.9,50.6c4.1,8.3,9.4,14.9,16.5,19.5c9.3,6,21,7.8,35.7,4.7c0.2,0,0.4,0,0.6,0.1
	l30.3-20.2l67.4,22.5c7.5,2.5,15.7-1.2,18.9-8.4c0.1-0.3,0.3-0.6,0.3-0.9c2.3-6.7-1.2-14.1-8-16.4l-41.3-14.3
	c-4.4-1.5-7.4-5.7-7.4-10.3c0,0,0,0,0-0.1c0-4.4,3.5-7.9,7.9-7.9h64.4l0.1,0c8.7,0,15.6-7.1,15.6-15.8c0-8.8-7.1-16-15.8-16.2
	l-67.6-1.9c-4.5-0.1-8-3.7-8.1-8.2v0c0-4.4,3.5-8,7.9-8.1l65.5-0.7c0.2,0,0.4,0,0.6,0c9.6-0.5,16.9-8.6,16.5-18.2
	c-0.5-10.2-8.8-18.2-18.9-18.3l-77.3-1c-13-0.2-25.7,4.6-35.4,13.2L877.8,572.8z"/>
<path style="fill-rule:evenodd;clip-rule:evenodd;fill:#FFFFFF;" d="M1210.8,520.8l0,2c0.1,10.4,8.5,18.8,18.9,18.8h14.2
	c-11.8,0.9-19.4,4.7-23,11.5c-5.6,10.7-1.6,23.9,9.1,29.5c3.1,1.7,6.6,2.5,10.2,2.5h6.2l-1.7,0.8c-11.9,5.8-16.8,20.2-11,32.1
	c0.3,0.7,0.7,1.4,1.2,2.1c5.7,7.9,16.7,9.7,24.6,4c0.5-0.4,1-0.8,1.5-1.2l11-9.9c6.1-5.5,9-13.7,7.6-21.8c-0.1-0.6-0.2-1.1-0.3-1.6
	c-0.6-2.9-2.6-7.3-6-13c2.3-4.7,3-10.3,2-17c-1-6.7-3.8-12.5-8.5-17.5c2.3-5.8,2.6-12.3,1-19.5c-0.6-2.8-1.5-5.3-2.6-7.3
	c-2.1-3.7-5.8-6.1-10-6.6l-27.9-2.9c-8.2-0.9-15.6,5.1-16.5,13.4C1210.8,519.7,1210.8,520.2,1210.8,520.8z"/>
<path style="fill:#263E4B;" d="M1246.6,583.9l26.6-8.4c2.1-4.5,2.8-9.9,1.8-16.3c-1-6.5-3.7-12.2-8.3-17.1v0.2l-23.1-0.5
	c-11.2,1-18.4,4.7-21.8,11.1c-5.4,10.3-1.5,23,8.8,28.5c3,1.6,6.4,2.4,9.8,2.4H1246.6z M1247,585.3l-1.7,0.8
	c-11.5,5.6-16.3,19.6-10.6,31.1c0.3,0.7,0.7,1.4,1.1,2c5.5,7.6,16,9.3,23.6,3.9c0.5-0.4,1-0.7,1.4-1.2l11-9.9
	c5.9-5.3,8.7-13.3,7.4-21.2c-0.1-0.6-0.2-1.1-0.3-1.5c-0.5-2.7-2.4-6.8-5.6-12.3L1247,585.3z M1244.3,540.4l22.5,0.4
	c2.1-5.6,2.3-11.8,0.8-18.6c-0.6-2.8-1.5-5.1-2.6-7.1c-1.9-3.5-5.4-5.8-9.4-6.2l-27.9-2.9c-7.8-0.8-14.8,4.9-15.7,12.7
	c0,0.5-0.1,1-0.1,1.6l0,2c0,10,8.1,18,18.1,18L1244.3,540.4L1244.3,540.4z M1220.6,552.2c2.7-5.1,7.5-8.5,14.5-10.4h-5.1
	c-10.8,0-19.5-8.7-19.6-19.5l0-2c0-0.6,0-1.1,0.1-1.7c0.9-8.7,8.7-14.9,17.3-14l27.9,2.9c4.4,0.5,8.4,3.1,10.6,7
	c1.2,2.1,2.1,4.6,2.7,7.5c1.6,7.1,1.3,13.7-0.9,19.5c4.6,5,7.4,10.9,8.4,17.6c1,6.6,0.4,12.3-1.9,17.1c3.3,5.7,5.3,9.9,5.9,12.9
	c0.1,0.5,0.2,1,0.3,1.6c1.4,8.4-1.6,16.9-7.8,22.5l-11,9.9c-0.5,0.5-1,0.9-1.6,1.3c-8.3,5.9-19.8,4.1-25.7-4.3
	c-0.4-0.7-0.8-1.4-1.2-2.2c-5.8-11.9-1.3-26.2,10.2-32.5h-3.1c-3.7,0-7.3-0.9-10.6-2.6C1219,576.9,1214.8,563.3,1220.6,552.2z
	 M1230,510c0.4,0,0.8,0.3,0.8,0.7c0,0.4-0.3,0.8-0.7,0.8c-5.5,0.1-8,3.4-7.5,10.3c0.5,7,2.9,10.1,7.4,9.8c0.4,0,0.8,0.3,0.8,0.7
	c0,0.4-0.3,0.8-0.7,0.8c-5.5,0.4-8.5-3.5-9.1-11.2C1220.5,514.2,1223.5,510.1,1230,510z M1237.2,552.9c0.4,0,0.8,0.3,0.8,0.7
	c0,0.4-0.3,0.8-0.7,0.8c-5.5,0.5-7.7,3.9-6.8,10.8c1,6.9,3.6,9.8,8.1,9.2c0.4-0.1,0.8,0.2,0.8,0.6c0.1,0.4-0.2,0.8-0.6,0.8
	c-5.4,0.8-8.7-2.9-9.8-10.5C1227.9,557.7,1230.7,553.4,1237.2,552.9z M1247.7,596.6c0.4-0.1,0.8,0.2,0.9,0.6
	c0.1,0.4-0.2,0.8-0.6,0.9c-5.4,1.1-7.2,4.8-5.4,11.6c1.8,6.7,4.8,9.3,9.2,8.2c0.4-0.1,0.8,0.1,0.9,0.5c0.1,0.4-0.1,0.8-0.5,0.9
	c-5.3,1.4-9-1.8-11-9.2C1239.1,602.6,1241.3,598,1247.7,596.6z"/>
<path style="fill-rule:evenodd;clip-rule:evenodd;fill:#FFFFFF;" d="M598,731l24.3,253.6h12.5l-11.9-256c-0.3-6.7-6-11.9-12.7-11.6
	c-0.2,0-0.4,0-0.6,0C602.5,717.7,597.3,723.9,598,731z"/>
<path style="fill:#263E4B;" d="M597.2,730.6l24.3,254.2h14L623.6,728c-0.3-7.1-6.4-12.6-13.5-12.3c-0.2,0-0.4,0-0.7,0
	C602,716.5,596.5,723.1,597.2,730.6z M622.9,983.3l-24.2-252.9c-0.6-6.6,4.2-12.5,10.9-13.2c0.2,0,0.4,0,0.6,0
	c6.3-0.3,11.7,4.6,11.9,10.9L634,983.3H622.9z"/>
<path style="fill:#263E4B;" d="M616.1,991.9c-0.2,0.4-0.6,0.6-1,0.4c-0.4-0.2-0.6-0.6-0.4-1c9.9-24.2,15.7-41.1,17.3-50.7
	c0.1-0.4,0.5-0.7,0.9-0.6c0.4,0.1,0.7,0.5,0.6,0.9C631.8,950.6,626.1,967.6,616.1,991.9z M631.5,907.2c0.1,0.4-0.1,0.8-0.5,0.9
	c-0.4,0.1-0.8-0.1-1-0.5c-4.4-13.1-13.3-24.3-26.7-33.6c-0.3-0.2-0.4-0.7-0.2-1c0.2-0.3,0.7-0.4,1-0.2
	C617.8,882.3,627,893.8,631.5,907.2z M620.7,960.4c-0.2,0.4-0.6,0.5-1,0.4c-0.4-0.2-0.5-0.6-0.4-1c1.3-3,2.2-5.4,2.7-7.2
	c6.2-25.4,2.4-43.9-8.7-57.1c-0.3-0.3-0.2-0.8,0.1-1.1c0.3-0.3,0.8-0.2,1.1,0.1c11.3,13.6,15.3,32.6,9,58.4
	C623,954.9,622.1,957.4,620.7,960.4z M603,718.6c-0.1-0.4,0.2-0.8,0.6-0.8c0.4-0.1,0.8,0.2,0.8,0.6c6.5,50.9,30.9,77.9,73.3,81.1
	c0.4,0,0.7,0.4,0.7,0.8c0,0.4-0.4,0.7-0.8,0.7C634.5,797.7,609.6,770.2,603,718.6z M614,717.8c0-0.4,0.3-0.8,0.7-0.8
	c0.4,0,0.8,0.3,0.8,0.7c4.3,44.9,24.5,68.3,61,70.9c0.4,0,0.7,0.4,0.7,0.8c0,0.4-0.4,0.7-0.8,0.7C639.1,787.4,618.3,763.4,614,717.8
	z"/>
<path style="fill-rule:evenodd;clip-rule:evenodd;fill:#263E4B;" d="M1013.3,319.8c-1.9,0-3.5-1.8-3.5-4c0-2.2,1.6-4,3.5-4
	s3.5,1.8,3.5,4C1016.8,318,1015.2,319.8,1013.3,319.8z M1044.3,319.8c-1.9,0-3.5-1.8-3.5-4c0-2.2,1.6-4,3.5-4s3.5,1.8,3.5,4
	C1047.8,318,1046.2,319.8,1044.3,319.8z M1006.3,312.3c-0.3,0.3-0.7,0.4-1,0.1c-0.3-0.3-0.4-0.7-0.1-1.1c0.1-0.1,0.3-0.4,0.6-0.7
	c0.5-0.5,1-1,1.7-1.4c1.8-1.3,3.6-2.2,5.5-2.2c2.7,0,4.2,0.7,5.7,2.3c0.2,0.3,0.5,0.5,0.8,0.9c0.1,0.1,0.7,0.8,0.8,1
	c0.3,0.3,0.2,0.8-0.1,1.1c-0.3,0.3-0.8,0.2-1-0.1c-0.2-0.2-0.8-0.9-0.8-1.1c-0.3-0.4-0.5-0.6-0.7-0.9c-1.2-1.3-2.3-1.8-4.6-1.8
	c-1.5,0-3.1,0.7-4.6,1.9c-0.6,0.4-1.1,0.9-1.5,1.3C1006.6,312,1006.4,312.2,1006.3,312.3z M1038.3,312.3c-0.3,0.3-0.7,0.4-1,0.1
	c-0.3-0.3-0.4-0.7-0.1-1.1c0.1-0.1,0.3-0.4,0.6-0.7c0.5-0.5,1-1,1.6-1.4c1.7-1.4,3.4-2.2,5.2-2.2c2.6,0,4,0.7,5.4,2.3
	c0.2,0.3,0.4,0.5,0.7,0.9c0.1,0.1,0.6,0.8,0.8,1c0.3,0.3,0.2,0.8-0.2,1.1c-0.3,0.3-0.8,0.2-1-0.1c-0.2-0.2-0.7-0.9-0.8-1.1
	c-0.3-0.4-0.5-0.6-0.7-0.9c-1.1-1.3-2.1-1.8-4.2-1.8c-1.4,0-2.8,0.7-4.2,1.8c-0.5,0.4-1,0.9-1.4,1.3
	C1038.6,312,1038.4,312.2,1038.3,312.3z M1033.1,326.1h5.9l-6.6-17c-0.2-0.4,0-0.8,0.4-1c0.4-0.1,0.8,0,1,0.4l7,18
	c0.2,0.5-0.2,1-0.7,1h-7c-0.4,0-0.8-0.3-0.8-0.8C1032.3,326.4,1032.7,326.1,1033.1,326.1z M1029.4,336.5c-0.4,0.2-0.8,0.1-1-0.3
	c-0.2-0.4-0.1-0.8,0.3-1c2.7-1.5,5.3-1.5,7.8,0c0.3,0.2,0.5,0.7,0.3,1c-0.2,0.4-0.7,0.5-1,0.2
	C1033.7,335.3,1031.7,335.3,1029.4,336.5z"/>
<path style="fill-rule:evenodd;clip-rule:evenodd;fill:#FFFFFF;" d="M477.8,776.3l40,123.6l197.5-26.5V728.8l-195.1,39.1l-2.4,17
	l-12.8-14L477.8,776.3z"/>
<path style="fill:#263E4B;" d="M505.5,769.9c-0.2-0.2-0.4-0.3-0.7-0.2l-27.2,5.4c-0.4,0.1-0.7,0.5-0.6,1l40,123.6
	c0.1,0.3,0.5,0.6,0.8,0.5l197.5-26.5c0.4,0,0.7-0.4,0.7-0.7V728.3c0-0.5-0.4-0.8-0.9-0.7L520,766.6c-0.3,0.1-0.6,0.3-0.6,0.6
	l-2.2,15.4L505.5,769.9z M504.7,771.2l12.5,13.6c0.4,0.5,1.2,0.2,1.3-0.4l2.3-16.5l193.7-38.8v143.1l-196.2,26.4l-39.5-122.2
	L504.7,771.2z"/>
<path style="fill-rule:evenodd;clip-rule:evenodd;fill:#FFFFFF;" d="M433.8,1120.5h66.5c26.2-68.2,50.2-110.8,72.1-127.8
	c1.3-1-6.4-12.1-23.1-33.3c10.8,8.6,18.3,14.1,22.5,16.5c2,1.1,2.1-15.2,0.5-49.1l17.9,54.3c6.8-3.4,12-5.8,15.6-7.2
	c50.3-19.4,91.7,29.5,124,146.7h676"/>
<path style="fill:#263E4B;" d="M571.4,976.2c0.7,0.4,1.4,0,1.7-0.7c0.2-0.5,0.4-1.2,0.5-2.2c0.3-1.9,0.4-5,0.5-9.1
	c0.1-7.3-0.2-18-0.8-32.2l16.2,49.1c0.1,0.4,0.6,0.6,1,0.4c6.8-3.4,12-5.8,15.5-7.2c49.7-19.1,90.8,29.4,123,146.2
	c0.1,0.3,0.4,0.5,0.7,0.5h676c0.4,0,0.8-0.3,0.8-0.8c0-0.4-0.3-0.8-0.8-0.8H730.3c-32.4-117.1-74-166.2-124.8-146.6
	c-3.5,1.3-8.4,3.6-14.9,6.8L573,926.3c-0.3-0.8-1.5-0.6-1.5,0.3c0.8,16.9,1.2,29.4,1.1,37.6c0,4.1-0.2,7-0.5,8.9
	c-0.1,0.8-0.2,1.3-0.4,1.7c-4.2-2.5-11.5-7.9-22.1-16.3c-0.7-0.6-1.6,0.4-1.1,1.1c8.4,10.6,14.5,18.7,18.3,24.2
	c1.9,2.8,3.3,4.9,4.1,6.4c0.4,0.7,0.6,1.3,0.7,1.6c0,0.1,0,0.1,0,0.2c-22,17.1-45.9,59.6-72,127.5h-66c-0.4,0-0.8,0.3-0.8,0.8
	c0,0.4,0.3,0.8,0.8,0.8h66.5c0.3,0,0.6-0.2,0.7-0.5c26.1-68.1,50.1-110.6,71.9-127.5c1.2-1-0.3-3.8-4.7-10.1
	c-3.3-4.7-8.1-11.2-14.5-19.4C561.9,969.9,567.8,974.1,571.4,976.2z"/>
<path style="fill:#263E4B;" d="M1021,238h-28.4c-12.8,0-23.1,10.3-23.2,23l-16.9,24.3c-0.3,0.5,0,1.2,0.6,1.2h114
	c0.7,0,1-0.8,0.5-1.3l-24.4-25.3C1043.1,247.8,1033.2,238,1021,238z M970.7,261.7c0.1-0.1,0.1-0.3,0.1-0.4c0-12,9.7-21.8,21.8-21.8
	h28.4c11.5,0,20.8,9.3,20.8,20.8c0,0.2,0.1,0.4,0.2,0.5l23.4,24.3H954.5L970.7,261.7z"/>
<path style="fill-rule:evenodd;clip-rule:evenodd;fill:#0C6478;" d="M1042.2,260.8l-72.4,1l-5,7.5h85.5L1042.2,260.8z"/>
<path style="fill:#263E4B;" d="M1042.7,259.5l-72.4,1c-0.2,0-0.5,0.1-0.6,0.3l-5,7.5c-0.3,0.5,0,1.2,0.6,1.2h85.5
	c0.7,0,1-0.8,0.5-1.3l-8.1-8.5C1043.1,259.6,1042.9,259.5,1042.7,259.5z M1049,268h-82.3l4-6l71.7-1L1049,268z"/>
<path style="fill-rule:evenodd;clip-rule:evenodd;fill:#FFFFFF;" d="M839.3,1100.7l-8.5,41.1h33h128c-7.4-15.6-16-26.4-26-32.5
	c-10-6.1-28.1-8.9-54.5-8.5l13.5-70.1l-81,0.5l-1,52.6L839.3,1100.7z"/>
<path style="fill-rule:evenodd;clip-rule:evenodd;fill:#FFFFFF;" d="M1056.8,1094.7v47.6l20-0.5h128c-7.4-15.6-16.1-26.4-26-32.5
	c-9.9-6.1-28.1-8.9-54.5-8.5l12.5-68.9l-87.5-0.6l6.5,52.6L1056.8,1094.7z"/>
<path style="fill-rule:evenodd;clip-rule:evenodd;fill:#0C6478;" d="M842.8,1084.2c7.7,1.2,13.7,6.1,18,14.5c4.3,8.4,6.7,19.8,7,34
	l-35-0.5"/>
<path style="fill-rule:evenodd;clip-rule:evenodd;fill:#0C6478;" d="M1056.8,1084.2c13.7,3.2,22.7,9.1,27,17.5
	c4.3,8.4,6.3,18.8,6,31l-33-0.5V1084.2z"/>
<path style="fill:#263E4B;" d="M867.6,1030.7l5.6-38.4h-11.9v-1.5h12.2l3-20.5h-10.6v-1.5h58v1.5h-11.6l-3.8,20.5h10.9v1.5H908
	l-7.1,38.2l24.7-0.2l-11.1,57.4l3.8-10.5c0.2-0.4,0.4-0.9,0.6-1.3c2.2-3.7,6.9-4.9,10.6-2.8c0.6,0.4,1.2,0.8,1.7,1.4
	c2.5,2.8,2.2,7.2-0.6,9.7l-17.8,15.8c3.3-0.8,11.6-3,23.6-6.1c0.4-0.1,0.8,0.1,0.9,0.5c0.1,0.4-0.1,0.8-0.5,0.9
	c-8.8,2.3-15.1,3.9-19.3,5c23.1,0.1,39.2,3,48.5,8.6c10.1,6.2,18.8,17.1,26.3,32.9l0.5,1.1H829.8l8.7-41.9l3.5-17l1-53.2
	L867.6,1030.7z M869.1,1030.7l14.5-0.1l5.9-38.3h-14.8L869.1,1030.7z M885.2,1030.6l14.3-0.1l7.1-38.2H891L885.2,1030.6z
	 M911.9,1101.9c-0.1,0-0.1,0-0.2,0l-16.9,0.5c-0.4,0-0.8-0.3-0.8-0.7c0-0.4,0.3-0.8,0.7-0.8l15.1-0.4l-18.3-16.2
	c-2.8-2.5-3.1-6.8-0.6-9.7c0.5-0.5,1-1,1.7-1.4c3.7-2.2,8.4-0.9,10.6,2.8c0.2,0.4,0.4,0.8,0.6,1.3l7.3,20l0.2-0.7l12.5-64.8
	l-79.4,0.5l-1,51.3c15.6,4.6,24.5,20.7,25,47.9h116.6c-5.9-9.6-12.5-16.7-19.8-21.1C955.6,1104.4,937.8,1101.6,911.9,1101.9z
	 M912.8,1097.1l-0.3,1.3l17.2-15.2c2.2-2,2.4-5.3,0.5-7.5c-0.4-0.4-0.8-0.8-1.3-1.1c-3-1.8-6.8-0.8-8.6,2.2c-0.2,0.3-0.4,0.7-0.5,1
	L912.8,1097.1z M986,1133H833.4l-1.8,8.5h158.9C989.1,1138.5,987.6,1135.6,986,1133z M833.7,1131.5H867c-0.5-26.5-9-41.9-23.7-46.4
	l-3.3,16.2L833.7,1131.5z M902.4,1077.8c-0.1-0.3-0.3-0.7-0.5-1c-1.7-3-5.6-4-8.6-2.2c-0.5,0.3-0.9,0.7-1.3,1.1
	c-2,2.2-1.8,5.6,0.5,7.5l17.5,15.5L902.4,1077.8z M910.6,970.3h-16.2l-3.1,20.5h15.5L910.6,970.3z M892.9,970.3h-15l-3,20.5h14.8
	L892.9,970.3z"/>
<path style="fill-rule:evenodd;clip-rule:evenodd;fill:#0C6478;" d="M836.3,496.5h-16.5l18-28.5"/>
<path style="fill:#263E4B;" d="M1066.8,1030.5l-5.5-38.1h-9.5v-1.5h9.3l-3-20.5h-9.3v-1.5h60.5v1.5h-12.9l2.1,20.5h11.3v1.5h-11.2
	l3.9,38.3l35.2,0.2l-11.4,66.1l7.2-19.7c0.2-0.4,0.4-0.9,0.6-1.3c2.2-3.7,6.9-4.9,10.6-2.8c0.6,0.4,1.2,0.8,1.7,1.4
	c2.5,2.8,2.3,7.2-0.6,9.7l-17,15c4.2-1.1,11.3-2.9,20.8-5.4c0.4-0.1,0.8,0.1,0.9,0.5c0.1,0.4-0.1,0.8-0.5,0.9
	c-8.8,2.3-15.1,3.9-19.3,5c23.3,0.1,39.7,2.9,49,8.7c10.1,6.2,18.8,17.1,26.3,32.9l0.5,1.1H1056l0-0.7l-0.5-58l-7.1-53.9
	L1066.8,1030.5z M1068.3,1030.5l15.1,0.1l-3.4-38.2h-17.2L1068.3,1030.5z M1084.9,1030.6l16,0.1l-3.9-38.3h-15.5L1084.9,1030.6z
	 M1056.9,1083.4c21.7,4.4,32.9,20.5,33.6,48h108.1c-5.9-9.6-12.5-16.7-19.8-21.1c-9.7-5.9-27.4-8.8-53.2-8.4c-0.1,0-0.2,0-0.3,0
	c-0.2,0-0.4,0-0.5,0c0,0-0.1,0-0.1,0l-16.9,0.5c-0.4,0-0.8-0.3-0.8-0.7c0-0.4,0.3-0.8,0.7-0.8l15.1-0.4l-18.3-16.2
	c-2.8-2.5-3.1-6.8-0.6-9.7c0.5-0.5,1-1,1.7-1.4c3.7-2.2,8.4-0.9,10.6,2.8c0.2,0.4,0.4,0.8,0.6,1.3l7.7,21l11.4-65.9l-85.8-0.5
	L1056.9,1083.4z M1057,1085l0.4,46.5h31.6C1088.3,1104.8,1077.7,1089.3,1057,1085z M1199.5,1133h-142.1l0.1,8.5h146.6
	C1202.6,1138.5,1201.1,1135.6,1199.5,1133z M1115.4,1077.8c-0.1-0.3-0.3-0.7-0.5-1c-1.8-3-5.6-4-8.6-2.2c-0.5,0.3-0.9,0.7-1.3,1.1
	c-2,2.2-1.8,5.6,0.5,7.5l17.5,15.5L1115.4,1077.8z M1134.8,1077.8l-7.6,20.9l17.5-15.5c2.2-2,2.4-5.3,0.5-7.5
	c-0.4-0.4-0.8-0.8-1.3-1.1c-3-1.8-6.8-0.8-8.6,2.2C1135.1,1077.1,1135,1077.5,1134.8,1077.8z M1094.8,970.3h-15.3l1.8,20.5h15.5
	L1094.8,970.3z M1078.1,970.3h-18.4l3,20.5h17.3L1078.1,970.3z"/>
<path style="fill:#0C6478;" d="M578.9,829.8l1.5,9.3l-8.6,1.4l1.1,7l-11,1.7l-1.1-7l-30.3,4.8l-1.5-9.3l26-31.4l11-1.7l4.2,26.6
	L578.9,829.8z M540.9,835.9l18.4-2.9l-2.5-15.6L540.9,835.9z M609.6,842.3c-17,2.7-26.3-3.9-28.6-18.2c-2.3-14.2,4.6-23.3,21.6-26
	c17-2.7,26.4,3.9,28.6,18C633.4,830.4,626.5,839.6,609.6,842.3z M608.1,833.1c9.7-1.5,13.3-7.1,12-15.1c-1.3-8-6.4-12.1-16.1-10.5
	c-9.7,1.5-13.3,7-12.1,15C593.3,830.5,598.4,834.6,608.1,833.1z M685.5,813l1.5,9.3l-8.6,1.4l1.1,7l-11,1.7l-1.1-7l-30.3,4.8
	l-1.5-9.3l26-31.4l11-1.7l4.2,26.6L685.5,813z M647.5,819l18.4-2.9l-2.5-15.6L647.5,819z"/>
<path style="fill:#263E4B;" d="M580,828.5l1.7,10.8l-8.6,1.4l1.1,7l-12.5,2l-1.1-7l-30.3,4.8l-1.6-10.4l26.4-31.9l12-1.9l4.2,26.6
	L580,828.5z M570.2,831.6L566,805l-10,1.6l-25.6,30.9l1.3,8.2l30.3-4.8l1.1,7l9.5-1.5l-1.1-7l8.6-1.4l-1.2-7.8L570.2,831.6z
	 M539.5,836.4l18.3-21.3l2.8,17.9L539.5,836.4z M558.9,831.8l-2.1-13.2l-13.5,15.7L558.9,831.8z M610.2,842.6
	c-17.1,2.7-27.1-3.8-29.5-18.8c-2.4-14.9,5.1-24.1,22.2-26.8c17.1-2.7,27.1,3.8,29.5,18.7C634.8,830.5,627.2,839.9,610.2,842.6z
	 M609.9,841.1c16.3-2.6,23.2-11.2,21-25.3c-2.2-14-11.5-20-27.7-17.4c-16.3,2.6-23.2,11.1-21,25.1
	C584.4,837.7,593.6,843.7,609.9,841.1z M608.7,833.3c-9.8,1.5-15.6-2.5-17-11.3c-1.4-8.7,2.9-14.3,12.7-15.8
	c9.8-1.5,15.6,2.5,17,11.1C622.8,826.1,618.5,831.8,608.7,833.3z M608.5,831.8c9-1.4,12.7-6.3,11.4-14.2c-1.2-7.9-6.3-11.3-15.2-9.9
	c-9,1.4-12.7,6.2-11.4,14.1C594.5,829.8,599.5,833.3,608.5,831.8z M686.6,811.6l1.7,10.8l-8.6,1.4l1.1,7l-12.5,2l-1.1-7l-30.3,4.8
	l-1.6-10.4l26.4-31.9l12-1.9L678,813L686.6,811.6z M676.7,814.7l-4.2-26.6l-10,1.6l-25.6,30.9l1.3,8.2l30.3-4.8l1.1,7l9.5-1.5
	l-1.1-7l8.6-1.4l-1.2-7.8L676.7,814.7z M646.1,819.6l18.3-21.3l2.8,17.9L646.1,819.6z M665.5,815l-2.1-13.2l-13.5,15.7L665.5,815z"
	/>
<path style="fill:#263E4B;" d="M837.6,467.2c0.1-0.3,0.2-0.7,0.2-1l0.8-17.3c1.4-28.7,25-51.3,53.7-51.3h56.5v1.5h-56.5
	c-27.9,0-50.9,21.9-52.2,49.8l-0.2,5c2.7-10.2,7.8-19.3,15.3-27.1c11.4-11.8,25.6-5.9,42.1,17.1c0.2,0.3,0.2,0.8-0.2,1
	c-0.3,0.2-0.8,0.2-1-0.2c-16.1-22.4-29.3-27.8-39.9-16.9c-9.9,10.3-15.5,22.8-16.8,37.1c0,0.4-0.1,0.9-0.2,1.4l-2.3,48.1l-1.5-0.1
	l0.8-17.7h-16.1c-0.6,0-0.9-0.7-0.6-1.2L837.6,467.2z M836.4,495.3l1.2-25.4l-16,25.4H836.4z"/>
<path style="fill:#263E4B;" d="M1058.9,534.4c-0.4,0-0.7-0.4-0.7-0.8c0-0.4,0.4-0.7,0.8-0.7c5.5,0.2,8.2-3,8-9.9
	c-0.1-7-2.4-10.2-6.9-10.1c-0.4,0-0.8-0.3-0.8-0.7c0-0.4,0.3-0.8,0.7-0.8c5.5-0.1,8.3,3.9,8.4,11.6
	C1068.6,530.7,1065.4,534.7,1058.9,534.4z M1057.3,587.2c-0.4,0-0.7-0.4-0.7-0.8c0-0.4,0.4-0.7,0.8-0.7c5.5,0.5,8.3-2.5,8.5-9.5
	c0.3-7-1.9-10.3-6.4-10.5c-0.4,0-0.7-0.4-0.7-0.8c0-0.4,0.4-0.7,0.8-0.7c5.5,0.2,8.1,4.3,7.8,12
	C1067.2,584,1063.8,587.8,1057.3,587.2z M1024.5,645.7c-0.4-0.2-0.6-0.6-0.4-1c0.2-0.4,0.6-0.6,1-0.4c5.1,2.2,8.5,0.8,10.6-4.6
	c2.1-5.4,1-8.7-3.3-10.3c-0.4-0.1-0.6-0.6-0.4-1c0.2-0.4,0.6-0.6,1-0.4c5.1,2,6.5,6.2,4.1,12.3
	C1034.7,646.4,1030.4,648.2,1024.5,645.7z M970.5,445.8l1.4,0.4c-2.7,10.3-8.4,16.3-17.1,18.1l-0.3-1.5
	C962.6,461.2,967.9,455.5,970.5,445.8z"/>
<path style="fill:#263E4B;" d="M886.5,465.7l2,7.5c0.1,0.4,0.5,0.6,0.9,0.5c0.4-0.1,0.6-0.5,0.5-0.9l-2-7.5
	c-0.1-0.4-0.5-0.6-0.9-0.5C886.7,464.9,886.4,465.3,886.5,465.7z"/>
<path style="fill:#263E4B;" d="M887.1,466.2l6.5,1.5c0.4,0.1,0.8-0.2,0.9-0.6c0.1-0.4-0.2-0.8-0.6-0.9l-6.5-1.5
	c-0.4-0.1-0.8,0.2-0.9,0.6C886.4,465.7,886.7,466.1,887.1,466.2z"/>
<path style="fill:#263E4B;" d="M1169.3,471c-5-6.1-13.8-6.8-21.1-2c-2.8,1.9-4.9,4.5-5.8,7.5c-2.4,7.6,7.1,27.1,28.8,59
	c0.2,0.3,0.7,0.4,1,0.2c0.3-0.2,0.4-0.7,0.2-1c-21.3-31.3-30.8-50.7-28.6-57.7c0.9-2.7,2.7-5.1,5.2-6.7c6.6-4.4,14.6-3.8,19.1,1.7
	c0.3,0.3,0.7,0.4,1,0.1C1169.5,471.8,1169.6,471.3,1169.3,471z"/>
</svg>
