<?xml version="1.0" standalone="no"?>
<!DOCTYPE svg PUBLIC "-//W3C//DTD SVG 20010904//EN"
 "http://www.w3.org/TR/2001/REC-SVG-20010904/DTD/svg10.dtd">
<svg version="1.0" xmlns="http://www.w3.org/2000/svg"
 width="513.000000pt" height="513.000000pt" viewBox="0 0 513.000000 513.000000"
 preserveAspectRatio="xMidYMid meet">
<metadata>
Created by potrace 1.14, written by Peter Selinger 2001-2017
</metadata>
<g transform="translate(0.000000,513.000000) scale(0.100000,-0.100000)"
fill="#000000" stroke="none">
<path d="M523 4642 c-12 -2 -33 -15 -47 -29 l-26 -25 0 -976 c0 -964 0 -975
19 -950 24 30 140 127 213 178 249 173 617 242 928 176 14 -3 39 -9 55 -12 17
-3 35 -9 40 -12 6 -4 17 -8 25 -11 8 -2 465 -5 1015 -6 1114 -2 1051 2 1089
-70 36 -67 19 -143 -41 -182 -25 -17 -84 -18 -806 -23 l-780 -5 29 -31 c70
-75 114 -135 165 -221 39 -67 59 -93 74 -94 11 0 306 -1 655 -2 l635 -2 32
-24 c80 -60 74 -177 -11 -225 l-41 -24 -580 0 c-319 0 -588 -1 -598 -1 -16 -1
-17 -7 -10 -53 15 -98 8 -356 -11 -443 -10 -44 -23 -88 -27 -97 -6 -11 -5 -19
2 -24 7 -4 309 -6 673 -6 364 1 808 1 988 2 l328 0 -34 53 c-44 69 -73 136
-93 216 -15 60 -16 202 -18 1458 -1 1120 -4 1397 -14 1417 -29 53 79 50 -1934
51 -1030 0 -1882 -1 -1894 -3z m1317 -473 c58 -13 144 -62 182 -102 131 -141
155 -389 53 -562 -67 -115 -195 -185 -340 -185 -79 -1 -109 6 -180 39 -140 65
-225 211 -225 386 0 39 1 79 4 90 30 140 78 218 173 281 99 66 204 83 333 53z
m1943 -2 c37 -24 67 -75 67 -112 0 -40 -29 -94 -63 -119 -27 -20 -42 -21 -300
-22 -150 -1 -284 3 -298 8 -78 27 -113 130 -67 198 44 65 55 67 360 66 246 -1
277 -3 301 -19z m-2552 -7 c11 -6 24 -21 28 -33 5 -12 7 -148 6 -302 -1 -230
-5 -290 -19 -338 -31 -105 -122 -167 -245 -167 -148 0 -240 81 -256 226 -11
95 7 115 113 129 46 6 54 4 77 -19 14 -14 26 -32 26 -41 1 -8 3 -19 4 -25 1
-5 3 -19 4 -30 1 -23 45 -29 58 -7 4 6 7 139 8 293 0 260 1 283 19 302 26 30
131 36 177 12z m1403 -1 c148 -35 228 -184 175 -325 l-20 -52 33 -46 c83 -119
26 -316 -109 -374 -65 -27 -115 -33 -311 -33 l-167 0 -22 25 c-22 26 -22 27
-20 400 2 349 3 375 21 394 10 12 30 22 45 24 62 7 329 -2 375 -13z m1154
-598 c64 -45 80 -121 39 -182 -43 -65 -61 -69 -351 -68 -143 1 -271 5 -286 11
-79 27 -114 130 -68 198 43 63 57 66 361 65 268 0 273 -1 305 -24z"/>
<path d="M1677 3956 c-78 -28 -108 -78 -112 -183 -1 -41 2 -92 7 -113 31 -120
186 -166 276 -81 83 79 70 304 -22 360 -42 26 -103 33 -149 17z"/>
<path d="M2423 3918 c2 -40 15 -46 91 -42 68 3 98 23 80 52 -9 13 -28 18 -92
20 l-81 3 2 -33z"/>
<path d="M2429 3656 c-1 0 -3 -25 -5 -53 l-3 -53 77 0 c42 0 87 3 99 6 42 11
42 79 0 89 -20 5 -165 15 -168 11z"/>
<path d="M4522 3752 l-22 -3 1 -957 c0 -526 4 -977 9 -1002 15 -81 19 -94 54
-166 20 -39 57 -94 84 -122 l48 -53 53 6 c227 23 325 108 365 316 22 113 23
1747 1 1808 -22 64 -69 117 -131 147 -53 26 -60 27 -247 28 -106 0 -202 0
-215 -2z"/>
<path d="M1255 2899 c-122 -14 -162 -22 -245 -51 -156 -55 -274 -127 -394
-239 -167 -156 -274 -351 -322 -584 -16 -82 -23 -295 -10 -350 3 -16 9 -46 12
-65 14 -91 94 -289 145 -361 l18 -26 -195 -199 c-242 -247 -249 -256 -249
-345 0 -59 4 -73 30 -111 40 -56 101 -90 163 -90 88 -1 115 18 336 243 l207
211 38 -25 c42 -28 155 -82 215 -103 158 -56 369 -71 543 -39 455 84 811 455
878 915 8 49 8 243 2 275 -3 11 -8 40 -11 65 -4 25 -21 89 -37 142 -79 253
-282 492 -524 620 -180 95 -406 139 -600 117z m303 -345 c178 -51 324 -158
425 -311 85 -128 123 -247 126 -395 9 -374 -244 -690 -611 -764 -151 -31 -351
-5 -481 63 -165 84 -302 235 -367 405 -31 80 -60 234 -54 285 2 16 6 53 8 83
6 70 48 199 88 270 121 217 344 365 578 386 36 4 66 7 67 8 7 6 176 -16 221
-30z"/>
</g>
</svg>
